<svg width="32" height="32" viewBox="0 0 32 32" fill="none" xmlns="http://www.w3.org/2000/svg">
<g clip-path="url(#email2)">
<path d="M26.6907 27.8258H4.96323C2.12829 27.8258 -0.177795 25.5197 -0.177795 22.6848V8.96817C-0.177795 6.13359 2.12864 3.82715 4.96323 3.82715H26.6907C29.5253 3.82715 31.8314 6.13359 31.8314 8.96817V22.6848C31.8314 25.5197 29.5253 27.8258 26.6907 27.8258ZM4.96323 5.33051C2.95732 5.33051 1.32557 6.96227 1.32557 8.96817V22.6848C1.32557 24.6907 2.95732 26.3228 4.96323 26.3228H26.6907C28.6966 26.3228 30.3284 24.6907 30.3284 22.6848V8.96817C30.3284 6.96227 28.6966 5.33051 26.6907 5.33051H4.96323V5.33051Z" fill="white"/>
<path d="M3.7501 9.03975C7.59262 12.7841 11.4351 16.5281 15.2777 20.2724C15.994 20.9702 17.0933 19.8734 16.3759 19.1742C12.5334 15.4302 8.69089 11.6858 4.84837 7.94183C4.13207 7.24368 3.03274 8.34088 3.7501 9.03975Z" fill="white"/>
<path d="M16.3759 20.2724C20.2184 16.5284 24.061 12.7841 27.9035 9.04006C28.6205 8.34119 27.5219 7.24363 26.8052 7.94179C22.9627 11.6858 19.1202 15.4301 15.2776 19.1742C14.5606 19.873 15.6593 20.9706 16.3759 20.2724Z" fill="white"/>
<path d="M27.8612 22.9231C25.3044 20.4982 22.7472 18.0737 20.1904 15.6488C19.4652 14.9613 18.3651 16.0574 19.0921 16.7471C21.6489 19.1719 24.2061 21.5965 26.7629 24.0213C27.4881 24.7088 28.5881 23.6123 27.8612 22.9231Z" fill="white"/>
<path d="M4.96003 24.0209C7.51685 21.5961 10.074 19.1715 12.6308 16.7467C13.3575 16.0574 12.2581 14.9606 11.5326 15.6484C8.97576 18.0733 6.41858 20.4978 3.86176 22.9227C3.13516 23.6119 4.23449 24.7091 4.96003 24.0209Z" fill="white"/>
</g>
<defs>
<clipPath id="email2">
<rect width="32" height="32" fill="white"/>
</clipPath>
</defs>
</svg>
