<svg width="32" height="32" viewBox="0 0 32 32" fill="none" xmlns="http://www.w3.org/2000/svg">
<path d="M9.6 26.6669H4.26666V10.6669H9.6V26.6669ZM6.9344 8.53353C5.4592 8.53353 4.26666 7.3378 4.26666 5.8658C4.26666 4.3938 5.46133 3.2002 6.9344 3.2002C8.40426 3.2002 9.6 4.39593 9.6 5.8658C9.6 7.3378 8.40426 8.53353 6.9344 8.53353ZM28.8 26.6669H23.6725V18.8802C23.6725 17.0231 23.6373 14.6349 21.0069 14.6349C18.3371 14.6349 17.9264 16.6573 17.9264 18.7458V26.6669H12.8V10.6551H17.7216V12.8429H17.7909C18.4757 11.5842 20.1493 10.2573 22.6453 10.2573C27.84 10.2573 28.8 13.5735 28.8 17.885C28.8 17.885 28.8 26.6669 28.8 26.6669Z" fill="white"/>
</svg>
