<svg width="32" height="32" viewBox="0 0 32 32" fill="none" xmlns="http://www.w3.org/2000/svg">
<path d="M29.3333 7.8535C28.3467 8.28016 27.28 8.56016 26.1867 8.70683C27.32 8.04016 28.1867 6.98683 28.5867 5.7335C27.5333 6.36016 26.36 6.78683 25.12 7.04016C24.12 5.98683 22.6933 5.3335 21.1333 5.3335C18.1067 5.3335 15.6667 7.74683 15.6667 10.7202C15.6667 11.1468 15.7067 11.5602 15.7867 11.9468C11.2533 11.7202 7.22665 9.58683 4.51999 6.32016C4.05332 7.12016 3.77332 8.04016 3.77332 9.04016C3.77332 10.9068 4.74665 12.5602 6.19999 13.5068C5.31999 13.4935 4.45332 13.2402 3.73332 12.8402V12.8935C3.73332 15.5068 5.62665 17.6802 8.10665 18.1868C7.66665 18.3068 7.17332 18.3602 6.66665 18.3602C6.31999 18.3602 5.95999 18.3468 5.62665 18.2668C6.33332 20.4002 8.34665 21.9735 10.7333 22.0135C8.87999 23.4535 6.50665 24.3068 3.95999 24.3068C3.50665 24.3068 3.07999 24.2802 2.65332 24.2268C5.09332 25.7868 7.95999 26.6668 11.0533 26.6668C21.12 26.6668 26.6133 18.4668 26.6133 11.3468C26.6133 11.1068 26.6 10.8802 26.5867 10.6535C27.68 9.8935 28.5867 8.94683 29.3333 7.8535Z" fill="white"/>
</svg>
